<?xml version="1.0" standalone="no"?>
<!DOCTYPE svg PUBLIC "-//W3C//DTD SVG 20010904//EN"
 "http://www.w3.org/TR/2001/REC-SVG-20010904/DTD/svg10.dtd">
<svg version="1.0" xmlns="http://www.w3.org/2000/svg"
 width="700.000000pt" height="700.000000pt" viewBox="0 0 700.000000 700.000000"
 preserveAspectRatio="xMidYMid meet">
<metadata>
Created by potrace 1.11, written by Peter Selinger 2001-2013
</metadata>
<g transform="translate(0.000000,700.000000) scale(0.100000,-0.100000)"
fill="#000000" stroke="none">
<path d="M1808 4105 c-2 -1 -21 -5 -43 -8 -220 -31 -442 -247 -482 -470 -9
-53 -10 -200 -1 -248 28 -144 145 -311 272 -388 242 -145 540 -114 742 79 77
73 147 196 170 297 10 48 13 197 3 249 -5 27 -21 78 -36 114 -93 225 -294 366
-538 375 -46 2 -85 2 -87 0z"/>
<path d="M5048 4105 c-2 -2 -21 -6 -43 -9 -85 -14 -190 -63 -270 -128 -139
-114 -219 -285 -218 -468 2 -261 162 -484 413 -571 84 -29 247 -36 334 -13
115 30 203 81 288 168 203 206 227 538 57 772 -50 68 -140 148 -203 178 -68
32 -126 56 -126 51 0 -3 -12 0 -27 6 -26 10 -197 22 -205 14z"/>
</g>
</svg>
